<svg width="12" height="8" viewBox="0 0 12 8" fill="none" xmlns="http://www.w3.org/2000/svg">
<path fill-rule="evenodd" clip-rule="evenodd" d="M11.5594 7.22607C11.7302 7.05521 11.7302 6.7782 11.5594 6.60735L6.89269 1.94068C6.72184 1.76983 6.44483 1.76983 6.27397 1.94068L4.25 3.96466L1.05936 0.774015C0.888505 0.60316 0.611495 0.60316 0.440641 0.774015C0.269786 0.944869 0.269786 1.22188 0.440641 1.39273L3.94064 4.89273C4.1115 5.06359 4.3885 5.06359 4.55936 4.89273L6.58333 2.86876L10.9406 7.22607C11.1115 7.39692 11.3885 7.39692 11.5594 7.22607Z" fill="#E03137"/>
<path fill-rule="evenodd" clip-rule="evenodd" d="M6.72917 6.91671C6.72917 7.15833 6.92504 7.35421 7.16667 7.35421H11.25C11.4916 7.35421 11.6875 7.15833 11.6875 6.91671V2.83337C11.6875 2.59175 11.4916 2.39587 11.25 2.39587C11.0084 2.39587 10.8125 2.59175 10.8125 2.83337V6.47921H7.16667C6.92504 6.47921 6.72917 6.67508 6.72917 6.91671Z" fill="#E03137"/>
</svg>
