<svg width="16" height="14" viewBox="0 0 16 14" fill="none" xmlns="http://www.w3.org/2000/svg">
<path fill-rule="evenodd" clip-rule="evenodd" d="M0.732869 10.8274C0.732869 10.4822 1.01269 10.2024 1.35787 10.2024H6.60847C6.95364 10.2024 7.23347 10.4822 7.23347 10.8274C7.23347 11.1726 6.95364 11.4524 6.60847 11.4524H1.35787C1.01269 11.4524 0.732869 11.1726 0.732869 10.8274Z" fill="#111827"/>
<path fill-rule="evenodd" clip-rule="evenodd" d="M8.3254 2.75031C8.3254 2.40514 8.60523 2.12531 8.9504 2.12531H14.201C14.5462 2.12531 14.826 2.40514 14.826 2.75031C14.826 3.09549 14.5462 3.37531 14.201 3.37531H8.9504C8.60523 3.37531 8.3254 3.09549 8.3254 2.75031Z" fill="#111827"/>
<path fill-rule="evenodd" clip-rule="evenodd" d="M0.708336 2.70521C0.708336 1.2761 1.87419 0.125 3.30262 0.125C4.73105 0.125 5.89691 1.2761 5.89691 2.70521C5.89691 4.13432 4.73105 5.28542 3.30262 5.28542C1.87419 5.28542 0.708336 4.13432 0.708336 2.70521ZM3.30262 1.375C2.55608 1.375 1.95834 1.9749 1.95834 2.70521C1.95834 3.43553 2.55608 4.03542 3.30262 4.03542C4.04916 4.03542 4.64691 3.43553 4.64691 2.70521C4.64691 1.9749 4.04916 1.375 3.30262 1.375Z" fill="#111827"/>
<path fill-rule="evenodd" clip-rule="evenodd" d="M10.1031 10.7948C10.1031 9.36554 11.2691 8.21458 12.6981 8.21458C14.1268 8.21458 15.2917 9.36596 15.2917 10.7948C15.2917 12.2236 14.1268 13.375 12.6981 13.375C11.2691 13.375 10.1031 12.224 10.1031 10.7948ZM12.6981 9.46458C11.9507 9.46458 11.3531 10.0646 11.3531 10.7948C11.3531 11.525 11.9507 12.125 12.6981 12.125C13.4443 12.125 14.0417 11.5254 14.0417 10.7948C14.0417 10.0642 13.4443 9.46458 12.6981 9.46458Z" fill="#111827"/>
</svg>
