<svg width="18" height="17" viewBox="0 0 18 17" fill="none" xmlns="http://www.w3.org/2000/svg">
<path fill-rule="evenodd" clip-rule="evenodd" d="M6.5 1.625C5.00423 1.625 3.79167 2.83756 3.79167 4.33333C3.79167 5.8291 5.00423 7.04167 6.5 7.04167C7.99577 7.04167 9.20833 5.8291 9.20833 4.33333C9.20833 2.83756 7.99577 1.625 6.5 1.625ZM2.54167 4.33333C2.54167 2.14721 4.31387 0.375 6.5 0.375C8.68613 0.375 10.4583 2.14721 10.4583 4.33333C10.4583 6.51946 8.68613 8.29167 6.5 8.29167C4.31387 8.29167 2.54167 6.51946 2.54167 4.33333Z" fill="#111827"/>
<path fill-rule="evenodd" clip-rule="evenodd" d="M4.83333 11.625C4.11504 11.625 3.42616 11.9103 2.91825 12.4183C2.41034 12.9262 2.125 13.615 2.125 14.3333V16C2.125 16.3452 1.84518 16.625 1.5 16.625C1.15482 16.625 0.875 16.3452 0.875 16V14.3333C0.875 13.2835 1.29204 12.2767 2.03437 11.5344C2.7767 10.792 3.78352 10.375 4.83333 10.375H8.16667C9.21648 10.375 10.2233 10.792 10.9656 11.5344C11.708 12.2767 12.125 13.2835 12.125 14.3333V16C12.125 16.3452 11.8452 16.625 11.5 16.625C11.1548 16.625 10.875 16.3452 10.875 16V14.3333C10.875 13.615 10.5897 12.9262 10.0817 12.4183C9.57384 11.9103 8.88496 11.625 8.16667 11.625H4.83333Z" fill="#111827"/>
<path fill-rule="evenodd" clip-rule="evenodd" d="M11.7279 0.953309C11.8135 0.618918 12.154 0.417247 12.4884 0.502865C13.3398 0.720871 14.0945 1.21606 14.6334 1.91036C15.1723 2.60466 15.4649 3.45858 15.4649 4.3375C15.4649 5.21642 15.1723 6.07034 14.6334 6.76464C14.0945 7.45894 13.3398 7.95413 12.4884 8.17214C12.154 8.25775 11.8135 8.05608 11.7279 7.72169C11.6422 7.3873 11.8439 7.04682 12.1783 6.9612C12.7609 6.81204 13.2772 6.47322 13.646 5.99817C14.0147 5.52313 14.2149 4.93886 14.2149 4.3375C14.2149 3.73614 14.0147 3.15187 13.646 2.67682C13.2772 2.20178 12.7609 1.86296 12.1783 1.7138C11.8439 1.62818 11.6422 1.2877 11.7279 0.953309Z" fill="#111827"/>
<path fill-rule="evenodd" clip-rule="evenodd" d="M13.3948 10.9688C13.4811 10.6345 13.822 10.4336 14.1562 10.5198C15.0022 10.7382 15.7521 11.2304 16.2891 11.9195C16.8261 12.6087 17.12 13.4561 17.125 14.3297L17.125 14.3333L17.125 16C17.125 16.3452 16.8452 16.625 16.5 16.625C16.1548 16.625 15.875 16.3452 15.875 16V14.3352C15.8712 13.7381 15.6701 13.1589 15.3031 12.6878C14.9356 12.2163 14.4225 11.8796 13.8438 11.7302C13.5095 11.6439 13.3086 11.303 13.3948 10.9688Z" fill="#111827"/>
</svg>
