<svg width="12" height="8" viewBox="0 0 12 8" fill="none" xmlns="http://www.w3.org/2000/svg">
<path fill-rule="evenodd" clip-rule="evenodd" d="M11.5594 0.774015C11.7302 0.944869 11.7302 1.22188 11.5594 1.39273L6.89269 6.0594C6.72184 6.23025 6.44483 6.23025 6.27397 6.0594L4.25 4.03543L1.05936 7.22607C0.888505 7.39692 0.611495 7.39692 0.440641 7.22607C0.269786 7.05521 0.269786 6.7782 0.440641 6.60735L3.94064 3.10735C4.1115 2.93649 4.3885 2.93649 4.55936 3.10735L6.58333 5.13132L10.9406 0.774015C11.1115 0.60316 11.3885 0.60316 11.5594 0.774015Z" fill="#27A376"/>
<path fill-rule="evenodd" clip-rule="evenodd" d="M6.72917 1.08337C6.72917 0.841749 6.92504 0.645874 7.16667 0.645874H11.25C11.4916 0.645874 11.6875 0.841749 11.6875 1.08337V5.16671C11.6875 5.40833 11.4916 5.60421 11.25 5.60421C11.0084 5.60421 10.8125 5.40833 10.8125 5.16671V1.52087H7.16667C6.92504 1.52087 6.72917 1.325 6.72917 1.08337Z" fill="#27A376"/>
</svg>
